<?xml version="1.0" encoding="UTF-8" standalone="no"?>
<svg
   xmlns:dc="http://purl.org/dc/elements/1.1/"
   xmlns:cc="http://creativecommons.org/ns#"
   xmlns:rdf="http://www.w3.org/1999/02/22-rdf-syntax-ns#"
   xmlns:svg="http://www.w3.org/2000/svg"
   xmlns="http://www.w3.org/2000/svg"
   xmlns:sodipodi="http://sodipodi.sourceforge.net/DTD/sodipodi-0.dtd"
   xmlns:inkscape="http://www.inkscape.org/namespaces/inkscape"
   height="24"
   viewBox="0 0 24 24"
   width="24"
   version="1.1"
   id="svg2086"
   sodipodi:docname="Information.svg"
   inkscape:export-filename="C:\Users\Awaiss.DESKTOP-M6EGNJ9\source\repos\AuVilator.Xam.Forms\AuVilator.Xam.Forms\AuVilator.Xam.Forms.Android\Resources\mipmap-xxxhdpi\Information.png"
   inkscape:export-xdpi="768"
   inkscape:export-ydpi="768"
   inkscape:version="0.92.4 (5da689c313, 2019-01-14)">
  <metadata
     id="metadata2092">
    <rdf:RDF>
      <cc:Work
         rdf:about="">
        <dc:format>image/svg+xml</dc:format>
        <dc:type
           rdf:resource="http://purl.org/dc/dcmitype/StillImage" />
        <dc:title></dc:title>
      </cc:Work>
    </rdf:RDF>
  </metadata>
  <defs
     id="defs2090" />
  <sodipodi:namedview
     pagecolor="#ffffff"
     bordercolor="#666666"
     borderopacity="1"
     objecttolerance="10"
     gridtolerance="10"
     guidetolerance="10"
     inkscape:pageopacity="0"
     inkscape:pageshadow="2"
     inkscape:window-width="1920"
     inkscape:window-height="1017"
     id="namedview2088"
     showgrid="false"
     inkscape:zoom="9.8333333"
     inkscape:cx="12"
     inkscape:cy="12"
     inkscape:window-x="-8"
     inkscape:window-y="-8"
     inkscape:window-maximized="1"
     inkscape:current-layer="svg2086" />
  <path
     d="M0 0h24v24H0V0z"
     fill="none"
     id="path2082" />
  <path
     d="M12 2C6.48 2 2 6.48 2 12s4.48 10 10 10 10-4.48 10-10S17.52 2 12 2zm0 18c-4.41 0-8-3.59-8-8s3.59-8 8-8 8 3.59 8 8-3.59 8-8 8zm-1-4h2v2h-2zm1.61-9.96c-2.06-.3-3.88.97-4.43 2.79-.18.58.26 1.17.87 1.17h.2c.41 0 .74-.29.88-.67.32-.89 1.27-1.5 2.3-1.28.95.2 1.65 1.13 1.57 2.1-.1 1.34-1.62 1.63-2.45 2.88 0 .01-.01.01-.01.02-.01.02-.02.03-.03.05-.09.15-.18.32-.25.5-.01.03-.03.05-.04.08-.01.02-.01.04-.02.07-.12.34-.2.75-.2 1.25h2c0-.42.11-.77.28-1.07.02-.03.03-.06.05-.09.08-.14.18-.27.28-.39.01-.01.02-.03.03-.04.1-.12.21-.23.33-.34.96-.91 2.26-1.65 1.99-3.56-.24-1.74-1.61-3.21-3.35-3.47z"
     id="path2084"
     style="stroke:none;stroke-opacity:1;fill:#ffffff;fill-opacity:1" />
</svg>
